# xmcd CD database file
#
# Track frame offsets:
#	150
#	24547
#	48436
#	73214
#	94462
#	116239
#	134818
#	157598
#	167990
#	190459
#	209046
#	224158
#	246865
#	265335
#	283083
#	300470
#	325521
#
# Disc length: 4572 seconds
#
# Revision: 2
# Processed by: cddbd v1.5.2PL0 Copyright (c) Steve Scherf et al.
# Submitted via: CDex 1.51
#
DISCID=1511da11
DTITLE=Various Artist - Sounds from Puglia | Jazz 2011
DYEAR=2011
DGENRE=Jazz
TTITLE0=Fabio Accardi - Chanson pour un film à faire
TTITLE1=Paola Arnesano - Don't stand so close to me
TTITLE2=Raffaele Casarano - Argento
TTITLE3=Nicola Conte - Castles in the rain
TTITLE4=Giuseppe Delre - In a Porter mood for love
TTITLE5=Vito Di Modugno - Evoli Park
TTITLE6=Cinzia D'Eramo - The seagulls of Kristiansund
TTITLE7=Improbabilband - Grido Nero
TTITLE8=La Banda di Ruvo di Puglia e Pino Minafra - Il piano dell'orfano
TTITLE9=Gianni Lenoci - Bluish
TTITLE10=Luisiana Lorusso - Lux
TTITLE11=Stefano Luigi Mangia feat. Gianni Lenoci - Prayer to time
TTITLE12=Livio Minafra - Choo choof
TTITLE13=Roberto Ottaviano and Pinturas - El Vitocante
TTITLE14=Gaetano Partipilo and Urban Society - Red over blue
TTITLE15=Gianluca Petrella Cosmic Band - Coming Tomorrow, Part 01
TTITLE16=Synerjazz Trio - Gabin
EXTD=YEAR: 2011
EXTT0=
EXTT1=
EXTT2=
EXTT3=
EXTT4=
EXTT5=
EXTT6=
EXTT7=
EXTT8=
EXTT9=
EXTT10=
EXTT11=
EXTT12=
EXTT13=
EXTT14=
EXTT15=
EXTT16=
PLAYORDER=
